<?xml version="1.0" standalone="no"?>
<!DOCTYPE svg PUBLIC "-//W3C//DTD SVG 1.1//EN"
"http://www.w3.org/Graphics/SVG/1.1/DTD/svg11.dtd">

<svg width="380" height="102" view_box="0 0 380 102"
xmlns="http://www.w3.org/2000/svg"
xmlns:link="http://www.w3.org/1999/xlink">\n\n<desc>Généré par Mocodo 2.3.7 le Mon, 28 Feb 2022 07:51:34</desc>

<rect id="frame" x="0" y="0" width="380" height="102" fill="#ffffbf" stroke="none" stroke-width="0"/>

<!-- Association REGROUPE -->
<line x1="64" y1="51" x2="192" y2="51" stroke="#66bd63" stroke-width="2"/>
<text x="124" y="68.0" fill="#d73027" font-family="Verdana" font-size="12">1,N</text>
<line x1="318" y1="51" x2="192" y2="51" stroke="#66bd63" stroke-width="2"/>
<text x="239" y="68.0" fill="#d73027" font-family="Verdana" font-size="12">1,1</text>
<g id="association-REGROUPE">
	<path d="M 219 26 a 14 14 90 0 1 14 14 V 51 h -82 V 40 a 14 14 90 0 1 14 -14" fill="#a6d96a" stroke="#a6d96a" stroke-width="0"/>
	<path d="M 233 51.0 v 11 a 14 14 90 0 1 -14 14 H 165 a 14 14 90 0 1 -14 -14 V 51.0 H 82" fill="#d9ef8b" stroke="#d9ef8b" stroke-width="0"/>
	<rect x="151" y="26" width="82" height="50" fill="none" rx="14" stroke="#66bd63" stroke-width="2"/>
	<line x1="151" y1="51" x2="233" y2="51" stroke="#66bd63" stroke-width="1"/>
	<text x="158" y="43.7" fill="#000000" font-family="Verdana" font-size="12">REGROUPE</text>
</g>

<!-- Entity ESPECE -->
<g id="entity-ESPECE">
	<g id="frame-ESPECE">
		<rect x="9" y="9" width="110" height="25" fill="#fdae61" stroke="#fdae61" stroke-width="0"/>
		<rect x="9" y="34.0" width="110" height="59" fill="#fee08b" stroke="#fee08b" stroke-width="0"/>
		<rect x="9" y="9" width="110" height="84" fill="none" stroke="#f46d43" stroke-width="2"/>
		<line x1="9" y1="34" x2="119" y2="34" stroke="#f46d43" stroke-width="1"/>
	</g>
	<text x="40" y="26.7" fill="#000000" font-family="Verdana" font-size="12">ESPECE</text>
	<text x="14" y="51.8" fill="#000000" font-family="Verdana" font-size="12">nom scientifique</text>
	<line x1="14" y1="54" x2="114" y2="54" stroke="#000000" stroke-width="1"/>
	<text x="14" y="68.8" fill="#000000" font-family="Verdana" font-size="12">nom commun</text>
	<text x="14" y="85.8" fill="#000000" font-family="Verdana" font-size="12">famille</text>
</g>

<!-- Entity VARIETE -->
<g id="entity-VARIETE">
	<g id="frame-VARIETE">
		<rect x="265" y="9" width="106" height="25" fill="#fdae61" stroke="#fdae61" stroke-width="0"/>
		<rect x="265" y="34.0" width="106" height="59" fill="#fee08b" stroke="#fee08b" stroke-width="0"/>
		<rect x="265" y="9" width="106" height="84" fill="none" stroke="#f46d43" stroke-width="2"/>
		<line x1="265" y1="34" x2="371" y2="34" stroke="#f46d43" stroke-width="1"/>
	</g>
	<text x="291" y="26.7" fill="#000000" font-family="Verdana" font-size="12">VARIETE</text>
	<text x="270" y="51.8" fill="#000000" font-family="Verdana" font-size="12">nom de cultivar</text>
	<line x1="270" y1="54" x2="365" y2="54" stroke="#000000" stroke-width="1"/>
	<text x="270" y="68.8" fill="#000000" font-family="Verdana" font-size="12">jutosité</text>
	<text x="270" y="85.8" fill="#000000" font-family="Verdana" font-size="12">amertume</text>
</g>
</svg>